HIERARCHY
ROOT Hips
{
	OFFSET	0.000000	0.000000	0.000000
	CHANNELS 6 Xposition Yposition Zposition Zrotation Xrotation Yrotation
	JOINT LeftUpLeg
	{
		OFFSET	12.830505	-7.049846	-1.643436
		CHANNELS 3 Zrotation Xrotation Yrotation
		JOINT LeftLeg
		{
			OFFSET	0.620834	-39.957500	-1.919341
			CHANNELS 3 Zrotation Xrotation Yrotation
			JOINT LeftFoot
			{
				OFFSET	-0.413890	-44.704761	-3.870325
				CHANNELS 3 Zrotation Xrotation Yrotation
				JOINT LeftFootHeel
				{
					OFFSET	0.164738	-8.918193	-6.555130
					CHANNELS 3 Zrotation Xrotation Yrotation
					End Site
					{
						OFFSET	-0.604053	0.000000	21.044330
					}
				}
			}
		}
	}
	JOINT RightUpLeg
	{
		OFFSET	-12.830505	-7.049846	-1.643436
		CHANNELS 3 Zrotation Xrotation Yrotation
		JOINT RightLeg
		{
			OFFSET	-0.620834	-39.957500	-1.919341
			CHANNELS 3 Zrotation Xrotation Yrotation
			JOINT RightFoot
			{
				OFFSET	0.413890	-44.704761	-3.870325
				CHANNELS 3 Zrotation Xrotation Yrotation
				JOINT RightFootHeel
				{
					OFFSET	-0.164738	-8.918193	-6.555130
					CHANNELS 3 Zrotation Xrotation Yrotation
					End Site
					{
						OFFSET	0.604053	0.000000	21.044330
					}
				}
			}
		}
	}
	JOINT Spine
	{
		OFFSET	0.000000	12.498170	1.820647
		CHANNELS 3 Zrotation Xrotation Yrotation
		JOINT Spine1
		{
			OFFSET	0.000000	7.620000	0.000000
			CHANNELS 3 Zrotation Xrotation Yrotation
			JOINT LeftShoulder
			{
				OFFSET	9.167800	29.136339	-5.551221
				CHANNELS 3 Zrotation Xrotation Yrotation
				JOINT LeftArm
				{
					OFFSET	12.133453	-3.880866	1.461963
					CHANNELS 3 Zrotation Xrotation Yrotation
					JOINT LeftForeArm
					{
						OFFSET	2.507115	-31.664908	-1.069404
						CHANNELS 3 Zrotation Xrotation Yrotation
						JOINT LeftHand
						{
							OFFSET	4.116172	-24.512624	5.009439
							CHANNELS 3 Zrotation Xrotation Yrotation
							End Site
							{
								OFFSET	-0.213136	-10.931856	2.182134
							}
						}
					}
				}
			}
			JOINT RightShoulder
			{
				OFFSET	-9.167800	29.136339	-5.551221
				CHANNELS 3 Zrotation Xrotation Yrotation
				JOINT RightArm
				{
					OFFSET	-12.133453	-3.880866	1.461963
					CHANNELS 3 Zrotation Xrotation Yrotation
					JOINT RightForeArm
					{
						OFFSET	-2.507115	-31.664908	-1.069404
						CHANNELS 3 Zrotation Xrotation Yrotation
						JOINT RightHand
						{
							OFFSET	-4.116172	-24.512624	5.009439
							CHANNELS 3 Zrotation Xrotation Yrotation
							End Site
							{
								OFFSET	0.213136	-10.931856	2.182134
							}
						}
					}
				}
			}
			JOINT Neck
			{
				OFFSET	0.000000	32.926272	-3.635654
				CHANNELS 3 Zrotation Xrotation Yrotation
				JOINT Head
				{
					OFFSET	0.000000	12.481178	4.646143
					CHANNELS 3 Zrotation Xrotation Yrotation
					End Site
					{
						OFFSET	0.000000	17.715204	-2.222063
					}
				}
			}
		}
	}
}
MOTION
Frames:     10
Frame Time: 0.016667
0.000000	103.214474	0.000000	0.199698	0.155834	1.370303	-0.157906	-0.101900	-1.077471	-0.041735	-0.072972	0.009302	-0.002792	0.023013	-0.302594	0.	0.	0.	-0.180368	-0.235557	-0.898795	-0.024325	0.084172	-0.471951	-0.000002	0.000001	-0.000007	0.	0.	0.	0.000000	0.000000	0.000000	-0.151111	-0.175509	-0.945059	-0.583776	0.480348	1.575226	0.562999	-0.343684	-1.676634	0.119680	0.153742	0.249634	0.656446	0.383817	0.467715	-0.116190	0.098537	-0.319851	-0.045921	0.007984	0.772855	0.038779	-0.012494	0.693609	-0.475552	0.007939	0.555564	-0.066286	0.206378	0.176219	-0.271114	0.669448	-0.288090	
0.000000	103.214474	0.000000	0.199698	0.155834	1.370303	-0.157906	-0.101900	-1.077471	-0.041735	-0.072972	0.009302	-0.002792	0.023013	-0.302594	0.	0.	0.	-0.180368	-0.235557	-0.898795	-0.024325	0.084172	-0.471951	-0.000002	0.000001	-0.000007	0.	0.	0.	0.000000	0.000000	0.000000	-0.151111	-0.175509	-0.945059	-0.572901	0.479545	1.585068	0.558676	-0.329507	-1.685368	0.113486	0.140377	0.248494	0.657307	0.387118	0.467443	-0.116190	0.098537	-0.319851	-0.048019	0.009333	0.790549	0.040855	-0.013884	0.675913	-0.456973	0.015953	0.588434	-0.066286	0.206378	0.176219	-0.264756	0.665333	-0.294999	
0.000051	103.214774	-0.002007	0.201073	0.156931	1.379837	-0.159325	-0.102937	-1.087011	-0.041735	-0.072972	0.009302	-0.002792	0.023013	-0.302594	0.	0.	0.	-0.181809	-0.236591	-0.908335	-0.024325	0.084172	-0.471951	-0.000002	0.000001	-0.000007	0.	0.	0.	0.000000	0.000000	0.000001	-0.152542	-0.176547	-0.954598	-0.562160	0.478753	1.594786	0.552477	-0.319373	-1.694346	0.109189	0.131104	0.247695	0.657307	0.387118	0.467443	-0.116190	0.098537	-0.319851	-0.050072	0.010650	0.807872	0.042885	-0.015242	0.658594	-0.456200	0.034352	0.622606	-0.066286	0.206378	0.176219	-0.255643	0.659429	-0.304903	
0.000122	103.215171	-0.004730	0.202941	0.158426	1.392783	-0.161251	-0.104351	-1.099967	-0.041735	-0.072972	0.009302	-0.002792	0.023013	-0.302594	0.	0.	0.	-0.183766	-0.237999	-0.921292	-0.024325	0.084172	-0.471951	-0.000002	0.000001	-0.000007	0.	0.	0.	0.000000	0.000000	0.000000	-0.154486	-0.177962	-0.967554	-0.551563	0.477976	1.604367	0.541853	-0.318391	-1.704026	0.109189	0.131104	0.247695	0.657307	0.387118	0.467443	-0.116190	0.098537	-0.319851	-0.051841	0.011777	0.822787	0.044633	-0.016405	0.643681	-0.467670	0.038493	0.639411	-0.066286	0.206378	0.176219	-0.246327	0.653377	-0.315046	
0.000191	103.215559	-0.007455	0.204812	0.159928	1.405727	-0.163182	-0.105770	-1.112918	-0.041735	-0.072972	0.009302	-0.002792	0.023013	-0.302594	0.	0.	0.	-0.185727	-0.239413	-0.934244	-0.024325	0.084172	-0.471951	-0.000002	0.000001	-0.000007	0.	0.	0.	0.000000	-0.000001	0.000002	-0.156433	-0.179384	-0.980505	-0.540921	0.477197	1.613993	0.531182	-0.317405	-1.713748	0.109189	0.131104	0.247695	0.657307	0.387118	0.467443	-0.116190	0.098537	-0.319851	-0.053513	0.012842	0.836910	0.046285	-0.017505	0.629560	-0.467733	0.036133	0.651540	-0.066286	0.206378	0.176219	-0.237157	0.647433	-0.325013	
0.000260	103.215937	-0.010180	0.206683	0.161425	1.418699	-0.165114	-0.107182	-1.125902	-0.041735	-0.072972	0.009302	-0.002792	0.023013	-0.302594	0.	0.	0.	-0.187689	-0.240820	-0.947228	-0.024325	0.084172	-0.471951	-0.000002	0.000001	-0.000007	0.	0.	0.	0.000000	0.000001	0.000001	-0.158381	-0.180797	-0.993488	-0.530262	0.476421	1.623630	0.520496	-0.316416	-1.723488	0.109189	0.131104	0.247695	0.657307	0.387118	0.467443	-0.116190	0.098537	-0.319851	-0.055253	0.013952	0.851623	0.048004	-0.018653	0.614848	-0.458587	0.026505	0.669842	-0.066286	0.206378	0.176219	-0.230661	0.643213	-0.332082	
0.000309	103.216237	-0.012159	0.208039	0.162512	1.428101	-0.166514	-0.108208	-1.135311	-0.041735	-0.072972	0.009302	-0.002792	0.023013	-0.302594	0.	0.	0.	-0.189111	-0.241843	-0.956638	-0.024325	0.084172	-0.471951	-0.000002	0.000001	-0.000007	0.	0.	0.	0.000000	0.000000	-0.000001	-0.159794	-0.181824	-1.002898	-0.519649	0.475647	1.633236	0.509856	-0.315430	-1.733191	0.109189	0.131104	0.247695	0.657307	0.387118	0.467443	-0.116190	0.098537	-0.319851	-0.053359	0.014933	0.862468	0.046092	-0.019615	0.604004	-0.447696	0.019007	0.691073	-0.066286	0.206378	0.176219	-0.230661	0.643213	-0.332082	
0.000309	103.216237	-0.012159	0.208039	0.162512	1.428101	-0.166514	-0.108208	-1.135311	-0.041735	-0.072972	0.009302	-0.002792	0.023013	-0.302594	0.	0.	0.	-0.189111	-0.241843	-0.956638	-0.024325	0.084172	-0.471951	-0.000002	0.000001	-0.000007	0.	0.	0.	0.000000	0.000000	-0.000001	-0.159794	-0.181824	-1.002898	-0.509240	0.474891	1.642655	0.499422	-0.314458	-1.742705	0.109189	0.131104	0.247695	0.657307	0.387118	0.467443	-0.116190	0.098537	-0.319851	-0.040581	0.016022	0.867481	0.033297	-0.020514	0.598989	-0.440709	0.020178	0.702744	-0.066286	0.206378	0.176219	-0.230661	0.643213	-0.332082	
0.000309	103.216237	-0.012159	0.208039	0.162512	1.428101	-0.166514	-0.108208	-1.135311	-0.041735	-0.072972	0.009302	-0.002792	0.023013	-0.302594	0.	0.	0.	-0.189111	-0.241843	-0.956638	-0.024325	0.084172	-0.471951	-0.000002	0.000001	-0.000007	0.	0.	0.	0.000000	0.000000	-0.000001	-0.159794	-0.181824	-1.002898	-0.501841	0.474355	1.649353	0.492006	-0.313769	-1.749471	0.109189	0.131104	0.247695	0.657307	0.387118	0.467443	-0.116190	0.098537	-0.319851	-0.033036	0.018218	0.889427	0.025711	-0.022605	0.577042	-0.433662	0.036864	0.742132	-0.066286	0.206378	0.176219	-0.230661	0.643213	-0.332082	
0.000309	103.216237	-0.012159	0.208039	0.162512	1.428101	-0.166514	-0.108208	-1.135311	-0.041735	-0.072972	0.009302	-0.002792	0.023013	-0.302594	0.	0.	0.	-0.189111	-0.241843	-0.956638	-0.024325	0.084172	-0.471951	-0.000002	0.000001	-0.000007	0.	0.	0.	0.000000	0.000000	-0.000001	-0.159794	-0.181824	-1.002898	-0.501841	0.474355	1.649353	0.492006	-0.313769	-1.749471	0.109189	0.131104	0.247695	0.657307	0.387118	0.467443	-0.116190	0.098537	-0.319851	-0.033429	0.018458	0.892712	0.026099	-0.022852	0.573756	-0.439714	0.037373	0.759416	-0.066286	0.206378	0.176219	-0.230661	0.643213	-0.332082	
